<?xml version="1.0" encoding="UTF-8" standalone="no"?>
<!-- Created with Inkscape (http://www.inkscape.org/) -->

<svg
   width="23.208933mm"
   height="22.596828mm"
   viewBox="0 0 23.208933 22.596828"
   version="1.1"
   id="svg1"
   xmlns="http://www.w3.org/2000/svg"
   xmlns:svg="http://www.w3.org/2000/svg">
  <defs
     id="defs1" />
  <g
     id="layer1"
     transform="translate(-25.789373,-51.437611)">
    <text
       xml:space="preserve"
       style="font-size:3.175px;fill:#000000;stroke-width:0.264583"
       x="30.549351"
       y="55.816471"
       id="text1"><tspan
         id="tspan1"
         style="fill:#000000;stroke-width:0.264583"
         x="30.549351"
         y="55.816471">A</tspan></text>
    <text
       xml:space="preserve"
       style="font-size:3.175px;fill:#000000;stroke-width:0.264583"
       x="41.915501"
       y="55.811184"
       id="text2"><tspan
         id="tspan2"
         style="stroke-width:0.264583"
         x="41.915501"
         y="55.811184">B</tspan></text>
    <text
       xml:space="preserve"
       style="font-size:3.175px;fill:#000000;stroke-width:0.264583"
       x="36.226852"
       y="72.083809"
       id="text3"><tspan
         id="tspan3"
         style="stroke-width:0.264583"
         x="36.226852"
         y="72.083809">C</tspan></text>
    <ellipse
       style="fill:none;stroke:#000000;stroke-width:0.217885"
       id="path3"
       cx="33.706497"
       cy="59.446392"
       rx="7.391057"
       ry="7.3910575" />
    <ellipse
       style="fill:none;stroke:#000000;stroke-width:0.217885"
       id="path3-5"
       cx="40.94902"
       cy="59.443672"
       rx="7.391057"
       ry="7.3910575" />
    <ellipse
       style="fill:none;stroke:#000000;stroke-width:0.217885"
       id="path3-5-2"
       cx="37.338688"
       cy="65.783081"
       rx="7.391057"
       ry="7.3910575" />
    <rect
       style="fill:none;stroke:none;stroke-width:0.264583"
       id="rect24"
       width="23.208933"
       height="22.596828"
       x="25.789373"
       y="51.437611" />
  </g>
  <g
     id="layer4"
     style="display:inline"
     transform="translate(-25.789373,-51.437611)">
    <path
       style="fill:#ffccaa;stroke:#000000;stroke-width:0.185112"
       d="m 110.96719,246.58692 c -5.28399,-3.96847 -9.06924,-9.95573 -10.48543,-16.58515 -0.482588,-2.25909 -0.47654,-8.49693 0.0104,-10.7365 2.14518,-9.8661 9.20569,-17.70976 18.63418,-20.70107 3.01866,-0.95771 4.74953,-1.21399 8.23077,-1.21867 3.38197,-0.005 5.09781,0.23465 8.05238,1.12259 1.61563,0.48554 4.44269,1.69239 4.44269,1.89654 0,0.0629 -0.35403,0.3291 -0.78673,0.59149 -1.36406,0.82716 -3.58033,2.71455 -5.12024,4.36045 -4.36794,4.66855 -7.08594,10.91908 -7.53451,17.32696 -0.0695,0.99266 -0.19014,1.80484 -0.26811,1.80484 -0.34466,0 -3.37338,2.40418 -4.86467,3.86154 -3.40271,3.3253 -5.65342,6.93658 -7.15689,11.48331 -0.7015,2.12145 -1.27778,4.92555 -1.31367,6.39217 -0.042,1.71692 -0.0782,1.72481 -1.84017,0.4015 z m 6.17853,-36.85493 0.5163,-1.38834 h 1.61158 1.61159 l 0.53007,1.38834 c 0.51464,1.34794 0.54821,1.38834 1.15345,1.38834 0.34286,0 0.62279,-0.0625 0.62207,-0.13883 -7.2e-4,-0.0764 -0.74374,-2.05474 -1.65115,-4.39641 l -1.64984,-4.25758 h -0.59351 -0.5935 l -1.55344,3.97991 c -1.99652,5.11509 -1.92457,4.81291 -1.146,4.81291 0.60982,0 0.63949,-0.036 1.14238,-1.38834 z"
       id="path18"
       transform="scale(0.26458333)" />
    <path
       style="fill:#ffccaa;stroke:#000000;stroke-width:0.185112"
       d="m 118.19907,207.09415 c 0.003,-0.0764 0.24475,-0.80524 0.53778,-1.61974 l 0.53279,-1.48089 0.22219,0.55533 c 0.26595,0.66472 0.92358,2.53067 0.92358,2.62055 0,0.035 -0.4998,0.0636 -1.11067,0.0636 -0.61087,0 -1.10842,-0.0625 -1.10567,-0.13883 z"
       id="path19"
       transform="scale(0.26458333)" />
    <path
       style="fill:#ffccaa;stroke:#000000;stroke-width:0.185112"
       d="m 160.76985,204.64141 v -1.29578 h 0.89793 c 2.10794,0 3.07401,1.04291 1.97972,2.1372 -0.38986,0.38986 -0.62639,0.45437 -1.66601,0.45437 h -1.21164 z"
       id="path20"
       transform="scale(0.26458333)" />
    <path
       style="fill:#ffccaa;stroke:#000000;stroke-width:0.185112"
       d="m 160.76985,208.52876 v -1.48089 h 1.27082 c 1.56029,0 2.24981,0.41717 2.24042,1.3555 -0.0111,1.10855 -0.82629,1.60629 -2.63074,1.60629 h -0.8805 z"
       id="path21"
       transform="scale(0.26458333)" />
    <path
       style="fill:#ffccaa;stroke:#000000;stroke-width:0.185112"
       d="m 169.46937,246.81161 c -4.1e-4,-0.54052 -0.12316,-1.73246 -0.27278,-2.64877 -0.75829,-4.64386 -2.48156,-8.7571 -5.2349,-12.49506 -1.43486,-1.94799 -4.65645,-5.07721 -6.54292,-6.35532 l -1.59251,-1.07896 -0.12144,-1.8825 c -0.29576,-4.58451 -2.01812,-9.5158 -4.7672,-13.64898 -1.44299,-2.1695 -5.02394,-5.81394 -7.1872,-7.31463 l -1.56256,-1.08397 1.28489,-0.59768 c 1.69076,-0.78647 4.39914,-1.64015 6.46804,-2.03873 2.37349,-0.45726 7.15714,-0.45299 9.62583,0.009 5.65697,1.05768 10.40383,3.57098 14.54285,7.69993 4.06947,4.05957 6.67836,9.02355 7.68911,14.63019 0.42466,2.35563 0.43664,6.90865 0.0241,9.16305 -0.74191,4.05436 -2.48574,8.22638 -4.7905,11.461 -1.40452,1.97118 -3.81254,4.44 -5.71646,5.8608 -1.97243,1.47193 -1.8455,1.44986 -1.84636,0.32105 z m -5.06338,-36.17902 c 0.80368,-0.38137 1.17677,-1.09392 1.17677,-2.24748 0,-0.91566 -0.28708,-1.36758 -1.16393,-1.83228 -0.30213,-0.16012 -0.29048,-0.19703 0.13394,-0.42417 0.56327,-0.30145 0.92261,-1.29251 0.76783,-2.1176 -0.23924,-1.27525 -1.40463,-1.7637 -4.22681,-1.77158 l -1.61973,-0.005 v 4.35014 4.35013 h 2.14709 c 1.60377,0 2.30848,-0.0766 2.78484,-0.30263 z"
       id="path22"
       transform="scale(0.26458333)" />
    <path
       style="fill:#ffccaa;stroke:#000000;stroke-width:0.185112"
       d="m 138.18617,275.8917 c -8.05387,-0.89884 -15.38749,-5.37139 -19.85177,-12.10698 -2.57763,-3.88906 -4.14621,-8.28502 -4.50914,-12.63692 l -0.1262,-1.51315 1.46078,0.71447 c 5.61564,2.74662 12.65302,3.47548 18.91555,1.95909 1.97598,-0.47846 4.50169,-1.38803 6.09186,-2.19383 l 0.9377,-0.47517 1.45613,0.70942 c 7.34554,3.57871 16.26681,3.65208 24.0088,0.19745 l 2.00967,-0.89676 -0.12487,1.32923 c -0.39336,4.18737 -1.97158,8.86179 -4.13009,12.23266 -5.66468,8.84635 -15.91901,13.82101 -26.13842,12.68049 z m 5.16,-3.42985 c 0.47621,-0.0952 0.57848,-0.20391 0.57848,-0.61467 v -0.49899 l -1.74496,0.0131 c -1.68677,0.0126 -1.76396,-0.005 -2.31507,-0.53176 -1.48962,-1.42349 -1.17006,-4.74719 0.54751,-5.69461 0.63765,-0.35172 1.671,-0.36885 2.96708,-0.0492 0.38539,0.0951 0.51256,0.0291 0.68859,-0.35729 0.19009,-0.41719 0.16676,-0.50033 -0.19501,-0.69493 -0.22601,-0.12158 -1.03568,-0.25603 -1.79926,-0.29879 -1.25353,-0.0702 -1.48659,-0.026 -2.4001,0.45527 -1.40397,0.73963 -2.04304,1.93764 -2.04156,3.82717 5.6e-4,0.72651 0.0884,1.63558 0.19521,2.02015 0.23537,0.84757 1.1676,1.95046 1.9291,2.28227 0.58993,0.25705 2.61487,0.3373 3.58999,0.14227 z"
       id="path23"
       transform="scale(0.26458333)" />
    <path
       style="fill:#ffccaa;stroke:#000000;stroke-width:0.185112"
       d="m 139.28674,247.2653 c -2.87814,-1.95618 -6.21054,-5.49044 -7.98692,-8.47071 -2.29324,-3.84742 -3.70178,-8.41038 -3.88566,-12.58762 l -0.057,-1.29579 1.11068,-0.59184 c 4.24006,-2.25942 9.81158,-3.39612 14.71436,-3.00201 3.64213,0.29277 6.6679,1.10965 9.95633,2.68794 l 1.74938,0.83963 -0.12904,1.60659 c -0.69623,8.6686 -5.08436,16.2732 -12.09919,20.96783 -0.74666,0.4997 -1.45926,0.90854 -1.58355,0.90854 -0.12429,0 -0.92949,-0.47815 -1.78934,-1.06256 z"
       id="path24"
       transform="scale(0.26458333)" />
  </g>
  <g
     id="layer3"
     style="display:none"
     transform="translate(-25.789373,-51.437611)">
    <path
       style="fill:#ffccaa;stroke:#000000;stroke-width:0.185112"
       d="m 153.82814,223.1989 c -4.74918,-2.42829 -10.42284,-3.42654 -15.96365,-2.8087 -3.23123,0.3603 -5.42081,1.02155 -10.27095,3.10179 -0.43098,0.18485 0.10824,-3.87939 0.85791,-6.46634 1.83636,-6.33689 6.52006,-12.50202 11.88764,-15.64763 l 0.78489,-0.45998 0.79872,0.51232 c 6.09903,3.91202 10.55615,10.14758 12.15279,17.0019 0.35289,1.51494 0.85282,5.07376 0.72925,5.19132 -0.0281,0.0267 -0.46754,-0.16439 -0.9766,-0.42468 z"
       id="path15"
       transform="scale(0.26458333)" />
    <path
       style="fill:#ffccaa;stroke:#000000;stroke-width:0.185112"
       d="m 169.46937,246.81161 c -4.1e-4,-0.54052 -0.12316,-1.73246 -0.27278,-2.64877 -0.75829,-4.64386 -2.48156,-8.7571 -5.2349,-12.49506 -1.43486,-1.94799 -4.65645,-5.07721 -6.54292,-6.35532 l -1.59251,-1.07896 -0.12144,-1.8825 c -0.29576,-4.58451 -2.01812,-9.5158 -4.7672,-13.64898 -1.44299,-2.1695 -5.02394,-5.81394 -7.1872,-7.31463 l -1.56256,-1.08397 1.28489,-0.59768 c 1.69076,-0.78647 4.39914,-1.64015 6.46804,-2.03873 2.37349,-0.45726 7.15714,-0.45299 9.62583,0.009 5.65697,1.05768 10.40383,3.57098 14.54285,7.69993 4.06947,4.05957 6.67836,9.02355 7.68911,14.63019 0.42466,2.35563 0.43664,6.90865 0.0241,9.16305 -0.74191,4.05436 -2.48574,8.22638 -4.7905,11.461 -1.40452,1.97118 -3.81254,4.44 -5.71646,5.8608 -1.97243,1.47193 -1.8455,1.44986 -1.84636,0.32105 z m -5.06338,-36.17902 c 0.80368,-0.38137 1.17677,-1.09392 1.17677,-2.24748 0,-0.91566 -0.28708,-1.36758 -1.16393,-1.83228 -0.30213,-0.16012 -0.29048,-0.19703 0.13394,-0.42417 0.56327,-0.30145 0.92261,-1.29251 0.76783,-2.1176 -0.23924,-1.27525 -1.40463,-1.7637 -4.22681,-1.77158 l -1.61973,-0.005 v 4.35014 4.35013 h 2.14709 c 1.60377,0 2.30848,-0.0766 2.78484,-0.30263 z"
       id="path12"
       transform="scale(0.26458333)" />
    <path
       style="fill:#ffccaa;stroke:#000000;stroke-width:0.185112"
       d="m 160.76985,208.52876 v -1.48089 h 1.27082 c 1.56029,0 2.24981,0.41717 2.24042,1.3555 -0.0111,1.10855 -0.82629,1.60629 -2.63074,1.60629 h -0.8805 z"
       id="path13"
       transform="scale(0.26458333)" />
    <path
       style="fill:#ffccaa;stroke:#000000;stroke-width:0.185112"
       d="m 160.76985,204.64141 v -1.29578 h 0.89793 c 2.10794,0 3.07401,1.04291 1.97972,2.1372 -0.38986,0.38986 -0.62639,0.45437 -1.66601,0.45437 h -1.21164 z"
       id="path14"
       transform="scale(0.26458333)" />
    <path
       style="fill:#ffccaa;stroke:#000000;stroke-width:0.185112"
       d="m 123.93254,251.91708 c -3.77297,-0.68285 -6.52425,-1.54508 -8.93166,-2.7991 l -1.2495,-0.65086 v -1.16191 c 0,-1.64002 0.61903,-5.05614 1.2851,-7.09179 0.75625,-2.31127 1.96433,-4.78643 3.36758,-6.89964 1.31214,-1.976 4.9432,-5.72037 6.75654,-6.96739 l 1.13551,-0.78087 0.12925,1.4314 c 0.77506,8.5829 5.33973,16.45946 12.24039,21.12139 l 1.34673,0.90982 -1.42221,0.6476 c -1.6215,0.73834 -3.75929,1.43876 -5.77589,1.8924 -1.34236,0.30197 -7.75038,0.55373 -8.88184,0.34895 z"
       id="path16"
       transform="scale(0.26458333)" />
    <path
       style="fill:#ffccaa;stroke:#000000;stroke-width:0.185112"
       d="m 138.18617,275.8917 c -8.05387,-0.89884 -15.38749,-5.37139 -19.85177,-12.10698 -2.57763,-3.88906 -4.14621,-8.28502 -4.50914,-12.63692 l -0.1262,-1.51315 1.46078,0.71447 c 5.61564,2.74662 12.65302,3.47548 18.91555,1.95909 1.97598,-0.47846 4.50169,-1.38803 6.09186,-2.19383 l 0.9377,-0.47517 1.45613,0.70942 c 7.34554,3.57871 16.26681,3.65208 24.0088,0.19745 l 2.00967,-0.89676 -0.12487,1.32923 c -0.39336,4.18737 -1.97158,8.86179 -4.13009,12.23266 -5.66468,8.84635 -15.91901,13.82101 -26.13842,12.68049 z m 5.16,-3.42985 c 0.47621,-0.0952 0.57848,-0.20391 0.57848,-0.61467 v -0.49899 l -1.74496,0.0131 c -1.68677,0.0126 -1.76396,-0.005 -2.31507,-0.53176 -1.48962,-1.42349 -1.17006,-4.74719 0.54751,-5.69461 0.63765,-0.35172 1.671,-0.36885 2.96708,-0.0492 0.38539,0.0951 0.51256,0.0291 0.68859,-0.35729 0.19009,-0.41719 0.16676,-0.50033 -0.19501,-0.69493 -0.22601,-0.12158 -1.03568,-0.25603 -1.79926,-0.29879 -1.25353,-0.0702 -1.48659,-0.026 -2.4001,0.45527 -1.40397,0.73963 -2.04304,1.93764 -2.04156,3.82717 5.6e-4,0.72651 0.0884,1.63558 0.19521,2.02015 0.23537,0.84757 1.1676,1.95046 1.9291,2.28227 0.58993,0.25705 2.61487,0.3373 3.58999,0.14227 z"
       id="path17"
       transform="scale(0.26458333)" />
  </g>
  <g
     id="layer2"
     style="display:none"
     transform="translate(-25.789373,-51.437611)">
    <path
       style="fill:#ffccaa;stroke:#000000;stroke-width:0.261788"
       d="m 160.86874,208.3468 v -1.4763 l 1.33666,0.15831 c 1.55022,0.1836 2.06658,0.52536 2.06658,1.36781 0,0.9699 -0.67631,1.42648 -2.113,1.42648 h -1.29024 z"
       id="path10"
       transform="scale(0.26458333)" />
    <path
       style="fill:#ffccaa;stroke:#000000;stroke-width:0.261788"
       d="m 110.86343,246.44798 c -2.53088,-2.0115 -3.54333,-3.03215 -5.26988,-5.31253 -3.69615,-4.8818 -5.46286,-10.20663 -5.45619,-16.44484 0.008,-7.37045 2.4427,-13.47988 7.48309,-18.77646 3.67505,-3.86185 8.00207,-6.42996 13.14084,-7.79918 2.21338,-0.58976 3.06386,-0.67701 6.59858,-0.67701 3.53833,0 4.38417,0.087 6.60811,0.67942 2.49019,0.66339 5.6964,1.93094 5.69546,2.25165 -2.6e-4,0.0883 -0.55983,0.51089 -1.24349,0.93903 -1.71801,1.07589 -5.77322,5.15891 -7.12513,7.174 -2.62152,3.90749 -4.51166,9.19579 -4.88446,13.66589 l -0.17405,2.08706 -1.85976,1.34345 c -6.36076,4.59489 -10.49215,11.68321 -11.5036,19.73703 l -0.31169,2.48189 z m 6.28744,-36.62488 0.45769,-1.17805 1.61253,-0.0782 1.61252,-0.0782 0.54926,1.32167 c 0.4408,1.06068 0.67161,1.32167 1.16883,1.32167 0.34076,0 0.62241,-0.0883 0.62588,-0.19634 0.003,-0.10799 -0.73281,-2.11546 -1.63618,-4.46104 -1.52643,-3.96336 -1.68662,-4.25932 -2.26713,-4.18861 -0.54516,0.0664 -0.82025,0.5758 -2.16178,4.00291 -2.07055,5.28954 -1.97842,4.89871 -1.13098,4.79733 0.57094,-0.0683 0.80217,-0.31809 1.16936,-1.26319 z"
       id="path5"
       transform="scale(0.26458333)" />
    <path
       style="fill:#ffccaa;stroke:#000000;stroke-width:0.261788"
       d="m 160.86874,204.71823 v -1.17804 h 1.25658 c 1.3187,0 1.88488,0.32465 1.88488,1.08081 0,0.79045 -0.75356,1.27528 -1.98211,1.27528 h -1.15935 z"
       id="path9"
       transform="scale(0.26458333)" />
    <path
       style="fill:#ffccaa;stroke:#000000;stroke-width:0.261788"
       d="m 121.86232,251.46955 c -2.54036,-0.56836 -3.84633,-1.01391 -6.34836,-2.1658 l -1.76706,-0.81353 v -1.105 c 0,-4.04644 1.92899,-9.81934 4.67844,-14.0012 1.58917,-2.4171 6.85544,-7.59185 7.72611,-7.59185 0.0887,0 0.16127,0.27375 0.16127,0.60834 0,1.38889 0.89985,5.69495 1.62348,7.76888 1.88544,5.40364 5.73868,10.50707 10.36295,13.7252 l 1.59908,1.11284 -0.96797,0.46563 c -3.46367,1.66614 -6.14731,2.25954 -10.78502,2.38477 -3.32348,0.0897 -4.46037,0.0195 -6.28292,-0.38828 z"
       id="path6"
       transform="scale(0.26458333)" />
    <path
       style="fill:#ffccaa;stroke:#000000;stroke-width:0.261788"
       d="m 150.7899,251.78326 c -1.73942,-0.24198 -4.9922,-1.18997 -6.69387,-1.95085 l -1.80342,-0.80637 1.76166,-1.24073 c 2.10028,-1.47923 5.55979,-5.03504 6.95676,-7.15041 2.40044,-3.6349 4.04527,-8.06943 4.63131,-12.48621 0.16236,-1.22362 0.34135,-2.27092 0.39776,-2.32733 0.19554,-0.19554 3.115,2.17401 4.77603,3.87642 2.20592,2.26087 4.36009,5.54288 5.57538,8.49441 1.05329,2.55809 2.06908,6.93491 2.06908,8.91523 0,1.07925 -0.0896,1.26117 -0.85081,1.72826 -1.44036,0.8838 -4.92153,2.12627 -7.39551,2.63957 -2.22101,0.46082 -7.16464,0.62238 -9.42437,0.30801 z"
       id="path8"
       transform="scale(0.26458333)" />
    <path
       style="fill:#ffccaa;stroke:#000000;stroke-width:0.261788"
       d="m 169.31606,244.95613 c -0.89862,-7.5144 -4.95515,-14.49893 -11.07501,-19.06898 l -2.29821,-1.7162 -0.18032,-1.87272 c -0.80354,-8.3455 -4.86814,-15.67629 -11.34507,-20.46163 l -2.12206,-1.56783 1.32946,-0.58673 c 11.68634,-5.15751 25.24629,-1.63744 33.01445,8.57033 1.71087,2.24817 3.96099,6.91443 4.67076,9.68616 0.72038,2.81312 0.96622,8.08132 0.51031,10.93558 -1.03555,6.48313 -4.74781,12.92397 -9.76048,16.9346 -1.17676,0.94153 -2.20652,1.71186 -2.28836,1.71186 -0.0818,0 -0.2868,-1.154 -0.45547,-2.56444 z m -4.60495,-34.50507 c 0.61413,-0.45718 0.75214,-0.77367 0.81722,-1.87411 0.0664,-1.12286 -0.0104,-1.38617 -0.50556,-1.73299 -0.55808,-0.39089 -0.56371,-0.43122 -0.12739,-0.91335 0.32218,-0.356 0.43241,-0.83959 0.37467,-1.64375 -0.0723,-1.00644 -0.1887,-1.19275 -0.99807,-1.59708 -0.61907,-0.30926 -1.53185,-0.45785 -2.81422,-0.45813 l -1.89796,-4e-4 v 4.47726 4.47726 l 2.2062,-0.0923 c 1.73559,-0.0726 2.36381,-0.20965 2.94511,-0.6424 z"
       id="path7"
       transform="scale(0.26458333)" />
    <path
       style="fill:#ffccaa;stroke:#000000;stroke-width:0.0327235"
       d="m 117.99209,207.26249 c 0.008,-0.0315 0.23295,-0.63893 0.49917,-1.34985 0.45037,-1.2027 0.69869,-1.93959 0.7553,-2.2413 0.022,-0.11745 0.0374,-0.0832 0.24323,0.54258 0.12085,0.36736 0.42064,1.20872 0.6662,1.86968 0.24556,0.66097 0.44648,1.2095 0.44648,1.21895 0,0.009 -0.59074,0.0172 -1.31276,0.0172 -1.23419,0 -1.31185,-0.003 -1.29762,-0.0573 z"
       id="path11"
       transform="scale(0.26458333)" />
  </g>
</svg>
